# xmcd
#
# Track frame offsets:
#	150
#	16463
#	26180
#	37832
#	48816
#	58593
#	70815
#	83143
#	93447
#	107864
#
# Disc length: 1585 seconds
#
# Revision: 0
# Processed by: cddbd v1.5.2PL0 Copyright (c) Steve Scherf et al.
# Submitted via: audiograbber 1.83.01
#
DISCID=79062f0a
DTITLE=Various Artist - Truckin' Country
DYEAR=1900
DGENRE=
TTITLE0=Merle Haggard - Ramblin' Fever
TTITLE1=Ferlin Husky - Truck Drivin' Son of a Gun
TTITLE2=Johnny Cash - Wide Open Road
TTITLE3=Unknown - King Of The Road
TTITLE4=Dave Dudley - Six Days On The Road
TTITLE5=Hank Williams - Lost Highway
TTITLE6=Bobby Bare - 500 Miles Away From Home
TTITLE7=Faron Young - Live Fast, Love Hard, Die Young
TTITLE8=Johnny Paycheck - I'm the Only Hell (Mama Ever Raised)
TTITLE9=Roy Acuff - Wreck on the Highway
EXTD=
EXTT0=
EXTT1=
EXTT2=
EXTT3=
EXTT4=
EXTT5=
EXTT6=
EXTT7=
EXTT8=
EXTT9=
PLAYORDER=
